<mxfile host="app.diagrams.net" modified="2023-09-25T23:49:28.455Z" agent="Mozilla/5.0 (Windows NT 10.0; Win64; x64) AppleWebKit/537.36 (KHTML, like Gecko) Chrome/117.0.0.0 Safari/537.36 Edg/117.0.2045.36" etag="b_fAb24_DXGQlMYWxtVy" version="21.8.2" type="github">
  <diagram name="Page-1" id="PAodf0Zp3J8fKsHeYicR">
    <mxGraphModel dx="1426" dy="759" grid="1" gridSize="10" guides="1" tooltips="1" connect="1" arrows="1" fold="1" page="1" pageScale="1" pageWidth="850" pageHeight="1100" math="0" shadow="0">
      <root>
        <mxCell id="0" />
        <mxCell id="1" parent="0" />
        <mxCell id="4LjyDfOY2WP0mSKuPUkP-1" value="" style="whiteSpace=wrap;html=1;aspect=fixed;fillColor=none;strokeColor=default;rotation=0;" parent="1" vertex="1">
          <mxGeometry x="150" y="40" width="390" height="390" relative="1" as="geometry">
            <mxPoint x="140" as="offset" />
          </mxGeometry>
        </mxCell>
        <mxCell id="4LjyDfOY2WP0mSKuPUkP-18" style="rounded=0;orthogonalLoop=1;jettySize=auto;html=1;entryX=0;entryY=0.75;entryDx=0;entryDy=0;" parent="1" source="4LjyDfOY2WP0mSKuPUkP-20" target="4LjyDfOY2WP0mSKuPUkP-24" edge="1">
          <mxGeometry relative="1" as="geometry" />
        </mxCell>
        <mxCell id="4LjyDfOY2WP0mSKuPUkP-19" style="rounded=0;orthogonalLoop=1;jettySize=auto;html=1;entryX=0;entryY=0.25;entryDx=0;entryDy=0;" parent="1" source="4LjyDfOY2WP0mSKuPUkP-20" target="4LjyDfOY2WP0mSKuPUkP-23" edge="1">
          <mxGeometry relative="1" as="geometry" />
        </mxCell>
        <mxCell id="4LjyDfOY2WP0mSKuPUkP-20" value="patient&lt;br&gt;" style="shape=umlActor;verticalLabelPosition=bottom;verticalAlign=top;html=1;outlineConnect=0;" parent="1" vertex="1">
          <mxGeometry x="40" y="140" width="30" height="60" as="geometry" />
        </mxCell>
        <mxCell id="4LjyDfOY2WP0mSKuPUkP-22" style="edgeStyle=orthogonalEdgeStyle;rounded=0;orthogonalLoop=1;jettySize=auto;html=1;exitX=1;exitY=0.5;exitDx=0;exitDy=0;" parent="1" source="4LjyDfOY2WP0mSKuPUkP-23" target="4LjyDfOY2WP0mSKuPUkP-32" edge="1">
          <mxGeometry relative="1" as="geometry" />
        </mxCell>
        <mxCell id="4LjyDfOY2WP0mSKuPUkP-23" value="View wait-time" style="rounded=1;whiteSpace=wrap;html=1;" parent="1" vertex="1">
          <mxGeometry x="190" y="40" width="120" height="60" as="geometry" />
        </mxCell>
        <mxCell id="4LjyDfOY2WP0mSKuPUkP-24" value="virtual triage" style="rounded=1;whiteSpace=wrap;html=1;" parent="1" vertex="1">
          <mxGeometry x="190" y="260" width="120" height="60" as="geometry" />
        </mxCell>
        <mxCell id="4LjyDfOY2WP0mSKuPUkP-25" value="nurse&lt;br&gt;" style="shape=umlActor;verticalLabelPosition=bottom;verticalAlign=top;html=1;outlineConnect=0;" parent="1" vertex="1">
          <mxGeometry x="570" y="260" width="30" height="60" as="geometry" />
        </mxCell>
        <mxCell id="4LjyDfOY2WP0mSKuPUkP-26" style="edgeStyle=orthogonalEdgeStyle;rounded=0;orthogonalLoop=1;jettySize=auto;html=1;entryX=0.5;entryY=0.5;entryDx=0;entryDy=0;entryPerimeter=0;" parent="1" source="4LjyDfOY2WP0mSKuPUkP-28" target="4LjyDfOY2WP0mSKuPUkP-25" edge="1">
          <mxGeometry relative="1" as="geometry" />
        </mxCell>
        <mxCell id="4LjyDfOY2WP0mSKuPUkP-27" value="&lt;div&gt;Extends&lt;/div&gt;" style="edgeStyle=orthogonalEdgeStyle;rounded=0;orthogonalLoop=1;jettySize=auto;html=1;entryX=1;entryY=0.5;entryDx=0;entryDy=0;dashed=1;exitX=0;exitY=0.5;exitDx=0;exitDy=0;" parent="1" source="4LjyDfOY2WP0mSKuPUkP-28" target="4LjyDfOY2WP0mSKuPUkP-24" edge="1">
          <mxGeometry relative="1" as="geometry" />
        </mxCell>
        <mxCell id="4LjyDfOY2WP0mSKuPUkP-28" value="Hotline" style="rounded=1;whiteSpace=wrap;html=1;" parent="1" vertex="1">
          <mxGeometry x="375" y="260" width="120" height="60" as="geometry" />
        </mxCell>
        <mxCell id="4LjyDfOY2WP0mSKuPUkP-29" value="&lt;div&gt;Extends&lt;/div&gt;" style="edgeStyle=orthogonalEdgeStyle;rounded=0;orthogonalLoop=1;jettySize=auto;html=1;exitX=0.5;exitY=1;exitDx=0;exitDy=0;dashed=1;" parent="1" source="4LjyDfOY2WP0mSKuPUkP-31" target="4LjyDfOY2WP0mSKuPUkP-24" edge="1">
          <mxGeometry relative="1" as="geometry" />
        </mxCell>
        <mxCell id="4LjyDfOY2WP0mSKuPUkP-30" style="edgeStyle=orthogonalEdgeStyle;rounded=0;orthogonalLoop=1;jettySize=auto;html=1;exitX=1;exitY=0.5;exitDx=0;exitDy=0;" parent="1" source="4LjyDfOY2WP0mSKuPUkP-31" edge="1">
          <mxGeometry relative="1" as="geometry">
            <mxPoint x="570" y="120" as="targetPoint" />
          </mxGeometry>
        </mxCell>
        <mxCell id="4LjyDfOY2WP0mSKuPUkP-31" value="Enter Wailist" style="rounded=1;whiteSpace=wrap;html=1;" parent="1" vertex="1">
          <mxGeometry x="190" y="120" width="120" height="60" as="geometry" />
        </mxCell>
        <mxCell id="4LjyDfOY2WP0mSKuPUkP-32" value="&lt;div&gt;Patient Load&lt;/div&gt;&lt;div&gt;Database&lt;/div&gt;" style="shape=umlActor;verticalLabelPosition=bottom;verticalAlign=top;html=1;outlineConnect=0;" parent="1" vertex="1">
          <mxGeometry x="570" y="90" width="30" height="60" as="geometry" />
        </mxCell>
      </root>
    </mxGraphModel>
  </diagram>
</mxfile>
